@startuml

allowmixing
skinparam classAttributeIconSize 0
skinparam linetype ortho

class createDevApp <<function>>{
  + createDevApp(): DevAppBuilder
}

component catalog_graph_plugin <<client/director>>


class DevAppBuilder <<builder>> {
  - plugins: BackstagePlugin[]
  - apis: AnyApiFactory[]
  - routes: JSX.Element[]
  - sidebarItems: JSX.Element[]
  - rootChildren: ReactNode[]
  - themes: AppTheme[]
  - signInProviders: SignInProviderConfig[]
  - translationResources: TranslationResource[]
  --
  + registerPlugin(): DevAppBuilder
  + registerApi(): DevAppBuilder
  + addPage(): DevAppBuilder
  + addThemes(): DevAppBuilder
  + addSignInProvider(): DevAppBuilder
  + addRootChild(): DevAppBuilder
  + addTranslationResource(): DevAppBuilder
  + build(): ComponentType
  + render(): void
}

class DevApp <<product>> {
  + AlertDisplay
  + OAuthRequestDialog
  + AppRouter
  + SidebarPage
  + FlatRoutes
}

createDevApp --> DevAppBuilder : instantiates
createDevApp <-- catalog_graph_plugin : uses
DevAppBuilder --> DevApp : assembles via build()

@enduml
